{
	"asset":{
		"generator":"Khronos glTF Blender I/O v4.1.63",
		"version":"2.0"
	},
	"scene":0,
	"scenes":[
		{
			"name":"Scene",
			"nodes":[
				0,
				1,
				2
			]
		}
	],
	"nodes":[
		{
			"mesh":0,
			"name":"Cylinder",
			"scale":[
				0.023424547165632248,
				0.19830144941806793,
				0.03402775898575783
			],
			"translation":[
				0,
				0.12363677471876144,
				-0.003311698790639639
			]
		},
		{
			"mesh":1,
			"name":"Cube",
			"scale":[
				0.04696742445230484,
				0.440437912940979,
				0.0499112606048584
			],
			"translation":[
				0,
				0.36037659645080566,
				-0.025493768975138664
			]
		},
		{
			"mesh":2,
			"name":"Cylinder.001",
			"scale":[
				0.023424547165632248,
				0.19830144941806793,
				0.03402775898575783
			],
			"translation":[
				0,
				0.12363677471876144,
				-0.003311698790639639
			]
		}
	],
	"materials":[
		{
			"doubleSided":true,
			"name":"Material",
			"pbrMetallicRoughness":{
				"baseColorFactor":[
					0.8002911806106567,
					0.20239944756031036,
					0.00742393359541893,
					1
				],
				"metallicFactor":0,
				"roughnessFactor":0.5
			}
		},
		{
			"doubleSided":true,
			"name":"Material.001",
			"pbrMetallicRoughness":{
				"baseColorFactor":[
					0.1395527720451355,
					0.142072394490242,
					0.17637692391872406,
					1
				],
				"metallicFactor":0.7339449524879456,
				"roughnessFactor":0.3165137767791748
			}
		}
	],
	"meshes":[
		{
			"name":"Cylinder",
			"primitives":[
				{
					"attributes":{
						"POSITION":0,
						"NORMAL":1,
						"TEXCOORD_0":2
					},
					"indices":3,
					"material":0
				}
			]
		},
		{
			"name":"Cube.001",
			"primitives":[
				{
					"attributes":{
						"POSITION":4,
						"NORMAL":5,
						"TEXCOORD_0":6
					},
					"indices":7,
					"material":1
				}
			]
		},
		{
			"name":"Cylinder.001",
			"primitives":[
				{
					"attributes":{
						"POSITION":8,
						"NORMAL":9,
						"TEXCOORD_0":10
					},
					"indices":11,
					"material":1
				}
			]
		}
	],
	"accessors":[
		{
			"bufferView":0,
			"componentType":5126,
			"count":1536,
			"max":[
				1,
				1.03403902053833,
				1
			],
			"min":[
				-1,
				-1.03403902053833,
				-1
			],
			"type":"VEC3"
		},
		{
			"bufferView":1,
			"componentType":5126,
			"count":1536,
			"type":"VEC3"
		},
		{
			"bufferView":2,
			"componentType":5126,
			"count":1536,
			"type":"VEC2"
		},
		{
			"bufferView":3,
			"componentType":5123,
			"count":2484,
			"type":"SCALAR"
		},
		{
			"bufferView":4,
			"componentType":5126,
			"count":104,
			"max":[
				0.3163837790489197,
				1.9806324243545532,
				1.5897395610809326
			],
			"min":[
				-0.3163837790489197,
				-0.392956018447876,
				-0.6825137138366699
			],
			"type":"VEC3"
		},
		{
			"bufferView":5,
			"componentType":5126,
			"count":104,
			"type":"VEC3"
		},
		{
			"bufferView":6,
			"componentType":5126,
			"count":104,
			"type":"VEC2"
		},
		{
			"bufferView":7,
			"componentType":5123,
			"count":282,
			"type":"SCALAR"
		},
		{
			"bufferView":8,
			"componentType":5126,
			"count":1280,
			"max":[
				1.0629427433013916,
				1.0176762342453003,
				1.0629431009292603
			],
			"min":[
				-1.0629427433013916,
				0.9274929761886597,
				-1.0629431009292603
			],
			"type":"VEC3"
		},
		{
			"bufferView":9,
			"componentType":5126,
			"count":1280,
			"type":"VEC3"
		},
		{
			"bufferView":10,
			"componentType":5126,
			"count":1280,
			"type":"VEC2"
		},
		{
			"bufferView":11,
			"componentType":5123,
			"count":1920,
			"type":"SCALAR"
		}
	],
	"bufferViews":[
		{
			"buffer":0,
			"byteLength":18432,
			"byteOffset":0,
			"target":34962
		},
		{
			"buffer":0,
			"byteLength":18432,
			"byteOffset":18432,
			"target":34962
		},
		{
			"buffer":0,
			"byteLength":12288,
			"byteOffset":36864,
			"target":34962
		},
		{
			"buffer":0,
			"byteLength":4968,
			"byteOffset":49152,
			"target":34963
		},
		{
			"buffer":0,
			"byteLength":1248,
			"byteOffset":54120,
			"target":34962
		},
		{
			"buffer":0,
			"byteLength":1248,
			"byteOffset":55368,
			"target":34962
		},
		{
			"buffer":0,
			"byteLength":832,
			"byteOffset":56616,
			"target":34962
		},
		{
			"buffer":0,
			"byteLength":564,
			"byteOffset":57448,
			"target":34963
		},
		{
			"buffer":0,
			"byteLength":15360,
			"byteOffset":58012,
			"target":34962
		},
		{
			"buffer":0,
			"byteLength":15360,
			"byteOffset":73372,
			"target":34962
		},
		{
			"buffer":0,
			"byteLength":10240,
			"byteOffset":88732,
			"target":34962
		},
		{
			"buffer":0,
			"byteLength":3840,
			"byteOffset":98972,
			"target":34963
		}
	],
	"buffers":[
		{
			"byteLength":102812,
			"uri":"OldKnife.bin"
		}
	]
}
